<svg xmlns="http://www.w3.org/2000/svg" xmlns:xlink="http://www.w3.org/1999/xlink" version="1.1" width="256" height="256" viewBox="0 0 256 256" xml:space="preserve">
<g style="stroke: currentColor; stroke-width: 4; stroke-dasharray: none; stroke-linecap: butt; stroke-linejoin: miter; stroke-miterlimit: 10; fill: none; fill-rule: nonzero; opacity: 1;" transform="translate(1.4065934065934016 1.4065934065934016) scale(2.81 2.81)">
	<path d="M 52.705 75.492 H 37.294 c -2.386 0 -4.327 -1.941 -4.327 -4.327 V 63.76 c 0 -3.896 -1.817 -7.567 -4.986 -10.075 c -7.125 -5.638 -10.995 -14.428 -10.354 -23.513 c 0.961 -13.624 11.969 -24.543 25.604 -25.4 c 7.668 -0.482 14.97 2.14 20.551 7.38 c 5.503 5.168 8.659 12.46 8.659 20.006 c 0 8.533 -3.869 16.434 -10.616 21.677 c -3.002 2.333 -4.794 6.042 -4.794 9.922 v 7.408 C 57.032 73.551 55.091 75.492 52.705 75.492 z M 45.014 8.715 c -0.508 0 -1.018 0.016 -1.531 0.048 C 31.839 9.495 22.439 18.82 21.618 30.453 c -0.548 7.766 2.759 15.278 8.846 20.095 c 4.133 3.271 6.503 8.087 6.503 13.212 v 7.405 c 0 0.181 0.146 0.327 0.327 0.327 h 15.411 c 0.181 0 0.327 -0.146 0.327 -0.327 v -7.408 c 0 -5.105 2.37 -9.995 6.339 -13.08 c 5.765 -4.479 9.071 -11.229 9.071 -18.519 c 0 -6.541 -2.627 -12.611 -7.397 -17.091 C 56.651 10.941 51.007 8.715 45.014 8.715 z" style="stroke: currentColor; stroke-width: 4; stroke-dasharray: none; stroke-linecap: round; stroke-linejoin: miter; stroke-miterlimit: 10; fill: none; fill-rule: nonzero; opacity: 1;" transform=" matrix(1 0 0 1 0 0) "/>
	<path d="M 48.331 85.284 h -6.663 c -3.426 0 -6.213 -2.787 -6.213 -6.213 v -5.579 c 0 -1.104 0.896 -2 2 -2 h 15.088 c 1.104 0 2 0.896 2 2 v 5.579 C 54.544 82.497 51.757 85.284 48.331 85.284 z M 39.456 75.492 v 3.579 c 0 1.22 0.993 2.213 2.213 2.213 h 6.663 c 1.22 0 2.213 -0.993 2.213 -2.213 v -3.579 H 39.456 z" style="stroke: currentColor; stroke-width: 4; stroke-dasharray: none; stroke-linecap: round; stroke-linejoin: miter; stroke-miterlimit: 10; fill: none; fill-rule: nonzero; opacity: 1;" transform=" matrix(1 0 0 1 0 0) "/>
	<path d="M 28.922 32.01 c -0.047 0 -0.095 -0.001 -0.143 -0.005 c -1.102 -0.078 -1.932 -1.034 -1.854 -2.136 c 0.635 -8.998 7.904 -16.208 16.909 -16.774 c 1.119 -0.063 2.053 0.769 2.122 1.871 c 0.069 1.103 -0.769 2.052 -1.871 2.122 c -7.014 0.44 -12.675 6.056 -13.169 13.063 C 30.841 31.205 29.963 32.01 28.922 32.01 z" style="stroke: currentColor; stroke-width: 4; stroke-dasharray: none; stroke-linecap: round; stroke-linejoin: miter; stroke-miterlimit: 10; fill: none; fill-rule: nonzero; opacity: 1;" transform=" matrix(1 0 0 1 0 0) "/>
</g>
</svg>