<svg xmlns="http://www.w3.org/2000/svg" width="256" height="256" viewBox="0 0 256 256">
<g transform="translate(128 128) scale(4.51) translate(-45 -50)">
<path d="M 53.026 45.823 c 3.572 -2.527 5.916 -6.682 5.916 -11.381 C 58.941 26.754 52.688 20.5 45 20.5 s -13.942 6.254 -13.942 13.942 c 0 4.699 2.344 8.854 5.916 11.381 C 28.172 49.092 21.883 57.575 21.883 67.5 c 0 1.104 0.896 2 2 2 s 2 -0.896 2 -2 c 0 -10.541 8.576 -19.116 19.117 -19.116 S 64.116 56.959 64.116 67.5 c 0 1.104 0.896 2 2 2 s 2 -0.896 2 -2 C 68.116 57.575 61.827 49.092 53.026 45.823 z M 35.058 34.442 c 0 -5.482 4.46 -9.942 9.942 -9.942 c 5.481 0 9.941 4.46 9.941 9.942 s -4.46 9.942 -9.941 9.942 C 39.518 44.384 35.058 39.924 35.058 34.442 z" 
fill="currentColor"/>
</g>
</svg>