<svg xmlns="http://www.w3.org/2000/svg" xmlns:xlink="http://www.w3.org/1999/xlink" version="1.1" width="256" height="256" viewBox="0 0 256 256" xml:space="preserve">
<g style="stroke: none; stroke-width: 0; stroke-dasharray: none; stroke-linecap: butt; stroke-linejoin: miter; stroke-miterlimit: 10; fill: none; fill-rule: nonzero; opacity: 1;" transform="translate(1.4065934065934016 1.4065934065934016) scale(2.81 2.81)">
	<path d="M 45 90 C 20.187 90 0 69.813 0 45 S 20.187 0 45 0 s 45 20.187 45 45 S 69.813 90 45 90 z M 45 7.347 C 24.238 7.347 7.347 24.238 7.347 45 S 24.238 82.653 45 82.653 S 82.653 65.762 82.653 45 S 65.762 7.347 45 7.347 z" style="stroke: none; stroke-width: 1; stroke-dasharray: none; stroke-linecap: butt; stroke-linejoin: miter; stroke-miterlimit: 10; fill: currentColor; fill-rule: nonzero; opacity: 1;" transform=" matrix(1 0 0 1 0 0) " stroke-linecap="round"/>
	<path d="M 12.374 15.851 l 0.797 -3.03 l 0.578 -2.104 c 0.482 -2.232 -4.512 -0.336 -5.243 0.234 l 0.059 0.67 c 0.666 -0.468 3.186 -1.068 2.683 0.59 l -0.225 0.846 l 0 0 l -1.149 4.287 c -0.482 2.232 4.512 0.337 5.243 -0.234 l -0.059 -0.67 C 14.392 16.909 11.872 17.509 12.374 15.851 z" style="stroke: none; stroke-width: 1; stroke-dasharray: none; stroke-linecap: butt; stroke-linejoin: miter; stroke-miterlimit: 10; fill: currentColor; fill-rule: nonzero; opacity: 1;" transform=" matrix(3.89 0 0 3.89 -1.9444444444444287 -1.9444444444444287) " stroke-linecap="round"/>
	<circle cx="13.295" cy="7.275" r="1.545" style="stroke: none; stroke-width: 1; stroke-dasharray: none; stroke-linecap: butt; stroke-linejoin: miter; stroke-miterlimit: 10; fill: currentColor; fill-rule: nonzero; opacity: 1;" transform="  matrix(3.89 0 0 3.89 -1.9444444444444287 -1.9444444444444287) "/>
</g>
</svg>